<mxfile host="app.diagrams.net" modified="2022-07-18T13:30:13.923Z" agent="5.0 (Windows NT 10.0; Win64; x64) AppleWebKit/537.36 (KHTML, like Gecko) Chrome/103.0.0.0 Safari/537.36" etag="3VUz3FDZKNJzrdogrBbV" version="20.1.1" type="github">
  <diagram id="ClvSDSLctYj_k1VwI8lK" name="Page-1">
    <mxGraphModel dx="1420" dy="794" grid="1" gridSize="10" guides="1" tooltips="1" connect="1" arrows="1" fold="1" page="1" pageScale="1" pageWidth="850" pageHeight="1100" math="0" shadow="0">
      <root>
        <mxCell id="0" />
        <mxCell id="1" parent="0" />
        <mxCell id="Z197no9oIkUsPz3fdEV5-1" value="&lt;b&gt;&lt;font style=&quot;font-size: 25px;&quot;&gt;SPI MASTER&lt;/font&gt;&lt;/b&gt;" style="rounded=0;whiteSpace=wrap;html=1;" vertex="1" parent="1">
          <mxGeometry x="360" y="210" width="190" height="210" as="geometry" />
        </mxCell>
        <mxCell id="Z197no9oIkUsPz3fdEV5-2" value="" style="endArrow=classic;html=1;rounded=0;fontSize=25;entryX=0.001;entryY=0.143;entryDx=0;entryDy=0;entryPerimeter=0;" edge="1" parent="1" target="Z197no9oIkUsPz3fdEV5-1">
          <mxGeometry width="50" height="50" relative="1" as="geometry">
            <mxPoint x="160" y="240" as="sourcePoint" />
            <mxPoint x="450" y="370" as="targetPoint" />
          </mxGeometry>
        </mxCell>
        <mxCell id="Z197no9oIkUsPz3fdEV5-4" value="" style="endArrow=classic;html=1;rounded=0;fontSize=25;entryX=-0.002;entryY=0.52;entryDx=0;entryDy=0;entryPerimeter=0;exitX=0.003;exitY=0.267;exitDx=0;exitDy=0;exitPerimeter=0;" edge="1" parent="1" target="Z197no9oIkUsPz3fdEV5-1">
          <mxGeometry width="50" height="50" relative="1" as="geometry">
            <mxPoint x="160" y="320" as="sourcePoint" />
            <mxPoint x="450" y="370" as="targetPoint" />
          </mxGeometry>
        </mxCell>
        <mxCell id="Z197no9oIkUsPz3fdEV5-3" value="" style="endArrow=classic;html=1;rounded=0;fontSize=25;entryX=-0.007;entryY=0.17;entryDx=0;entryDy=0;entryPerimeter=0;" edge="1" parent="1">
          <mxGeometry width="50" height="50" relative="1" as="geometry">
            <mxPoint x="360" y="280" as="sourcePoint" />
            <mxPoint x="160" y="280" as="targetPoint" />
          </mxGeometry>
        </mxCell>
        <mxCell id="Z197no9oIkUsPz3fdEV5-5" value="" style="endArrow=classic;html=1;rounded=0;fontSize=25;entryX=-0.012;entryY=0.715;entryDx=0;entryDy=0;entryPerimeter=0;exitX=-0.004;exitY=0.364;exitDx=0;exitDy=0;exitPerimeter=0;shape=flexArrow;" edge="1" parent="1" target="Z197no9oIkUsPz3fdEV5-1">
          <mxGeometry width="50" height="50" relative="1" as="geometry">
            <mxPoint x="160" y="360" as="sourcePoint" />
            <mxPoint x="450" y="370" as="targetPoint" />
          </mxGeometry>
        </mxCell>
        <mxCell id="Z197no9oIkUsPz3fdEV5-6" value="" style="endArrow=classic;html=1;rounded=0;fontSize=25;entryX=0.008;entryY=0.464;entryDx=0;entryDy=0;entryPerimeter=0;shape=flexArrow;exitX=0.003;exitY=0.903;exitDx=0;exitDy=0;exitPerimeter=0;" edge="1" parent="1" source="Z197no9oIkUsPz3fdEV5-1">
          <mxGeometry width="50" height="50" relative="1" as="geometry">
            <mxPoint x="450" y="370" as="sourcePoint" />
            <mxPoint x="160" y="400" as="targetPoint" />
          </mxGeometry>
        </mxCell>
        <mxCell id="Z197no9oIkUsPz3fdEV5-7" value="&lt;font style=&quot;font-size: 15px;&quot;&gt;&lt;b&gt;Data_Req&lt;/b&gt;&lt;/font&gt;" style="text;html=1;align=center;verticalAlign=middle;resizable=0;points=[];autosize=1;strokeColor=none;fillColor=none;fontSize=25;" vertex="1" parent="1">
          <mxGeometry x="215" y="200" width="90" height="40" as="geometry" />
        </mxCell>
        <mxCell id="Z197no9oIkUsPz3fdEV5-8" value="&lt;b&gt;Rd_Wbar&lt;/b&gt;" style="text;html=1;align=center;verticalAlign=middle;resizable=0;points=[];autosize=1;strokeColor=none;fillColor=none;fontSize=15;" vertex="1" parent="1">
          <mxGeometry x="215" y="295" width="90" height="30" as="geometry" />
        </mxCell>
        <mxCell id="Z197no9oIkUsPz3fdEV5-9" value="&lt;b&gt;[7:0]RDATA&lt;/b&gt;" style="text;html=1;align=center;verticalAlign=middle;resizable=0;points=[];autosize=1;strokeColor=none;fillColor=none;fontSize=15;" vertex="1" parent="1">
          <mxGeometry x="205" y="370" width="110" height="30" as="geometry" />
        </mxCell>
        <mxCell id="Z197no9oIkUsPz3fdEV5-10" value="&lt;b&gt;Status_ready_busy&lt;/b&gt;" style="text;html=1;align=center;verticalAlign=middle;resizable=0;points=[];autosize=1;strokeColor=none;fillColor=none;fontSize=15;" vertex="1" parent="1">
          <mxGeometry x="170" y="250" width="160" height="30" as="geometry" />
        </mxCell>
        <mxCell id="Z197no9oIkUsPz3fdEV5-11" value="&lt;b&gt;[7:0]WDATA&lt;/b&gt;" style="text;html=1;align=center;verticalAlign=middle;resizable=0;points=[];autosize=1;strokeColor=none;fillColor=none;fontSize=15;" vertex="1" parent="1">
          <mxGeometry x="205" y="325" width="110" height="30" as="geometry" />
        </mxCell>
        <mxCell id="Z197no9oIkUsPz3fdEV5-19" value="" style="endArrow=classic;html=1;rounded=0;shadow=0;fontSize=15;entryX=0.5;entryY=0;entryDx=0;entryDy=0;" edge="1" parent="1" target="Z197no9oIkUsPz3fdEV5-1">
          <mxGeometry width="50" height="50" relative="1" as="geometry">
            <mxPoint x="455" y="160" as="sourcePoint" />
            <mxPoint x="360" y="210" as="targetPoint" />
          </mxGeometry>
        </mxCell>
        <mxCell id="Z197no9oIkUsPz3fdEV5-20" value="&lt;b&gt;RST&lt;/b&gt;" style="text;html=1;strokeColor=none;fillColor=none;align=center;verticalAlign=middle;whiteSpace=wrap;rounded=0;fontSize=15;" vertex="1" parent="1">
          <mxGeometry x="425" y="130" width="60" height="30" as="geometry" />
        </mxCell>
        <mxCell id="Z197no9oIkUsPz3fdEV5-21" value="" style="endArrow=classic;html=1;rounded=0;shadow=0;fontSize=15;" edge="1" parent="1">
          <mxGeometry width="50" height="50" relative="1" as="geometry">
            <mxPoint x="550" y="241" as="sourcePoint" />
            <mxPoint x="600" y="241" as="targetPoint" />
          </mxGeometry>
        </mxCell>
        <mxCell id="Z197no9oIkUsPz3fdEV5-22" value="&lt;b&gt;MOSI&lt;/b&gt;" style="text;html=1;strokeColor=none;fillColor=none;align=center;verticalAlign=middle;whiteSpace=wrap;rounded=0;fontSize=15;" vertex="1" parent="1">
          <mxGeometry x="600" y="220" width="60" height="30" as="geometry" />
        </mxCell>
        <mxCell id="Z197no9oIkUsPz3fdEV5-23" value="" style="endArrow=classic;html=1;rounded=0;shadow=0;fontSize=15;" edge="1" parent="1">
          <mxGeometry width="50" height="50" relative="1" as="geometry">
            <mxPoint x="600" y="280" as="sourcePoint" />
            <mxPoint x="550" y="280" as="targetPoint" />
          </mxGeometry>
        </mxCell>
        <mxCell id="Z197no9oIkUsPz3fdEV5-24" value="&lt;b&gt;MISO&lt;/b&gt;" style="text;html=1;align=center;verticalAlign=middle;resizable=0;points=[];autosize=1;strokeColor=none;fillColor=none;fontSize=15;" vertex="1" parent="1">
          <mxGeometry x="600" y="265" width="60" height="30" as="geometry" />
        </mxCell>
        <mxCell id="Z197no9oIkUsPz3fdEV5-25" value="" style="endArrow=classic;html=1;rounded=0;shadow=0;fontSize=15;" edge="1" parent="1">
          <mxGeometry width="50" height="50" relative="1" as="geometry">
            <mxPoint x="550" y="340" as="sourcePoint" />
            <mxPoint x="600" y="340" as="targetPoint" />
          </mxGeometry>
        </mxCell>
        <mxCell id="Z197no9oIkUsPz3fdEV5-26" value="&lt;b&gt;SCK&lt;/b&gt;" style="text;html=1;align=center;verticalAlign=middle;resizable=0;points=[];autosize=1;strokeColor=none;fillColor=none;fontSize=15;" vertex="1" parent="1">
          <mxGeometry x="600" y="325" width="60" height="30" as="geometry" />
        </mxCell>
        <mxCell id="Z197no9oIkUsPz3fdEV5-27" value="" style="endArrow=classic;html=1;rounded=0;shadow=0;fontSize=15;exitX=1.004;exitY=0.865;exitDx=0;exitDy=0;exitPerimeter=0;" edge="1" parent="1" source="Z197no9oIkUsPz3fdEV5-1">
          <mxGeometry width="50" height="50" relative="1" as="geometry">
            <mxPoint x="550" y="340" as="sourcePoint" />
            <mxPoint x="600" y="392" as="targetPoint" />
          </mxGeometry>
        </mxCell>
        <mxCell id="Z197no9oIkUsPz3fdEV5-29" value="&lt;b&gt;~SS&lt;/b&gt;" style="text;html=1;strokeColor=none;fillColor=none;align=center;verticalAlign=middle;whiteSpace=wrap;rounded=0;fontSize=15;" vertex="1" parent="1">
          <mxGeometry x="600" y="380" width="60" height="30" as="geometry" />
        </mxCell>
        <mxCell id="Z197no9oIkUsPz3fdEV5-30" value="" style="endArrow=classic;html=1;rounded=0;shadow=0;fontSize=15;entryX=0.5;entryY=1;entryDx=0;entryDy=0;" edge="1" parent="1" target="Z197no9oIkUsPz3fdEV5-1">
          <mxGeometry width="50" height="50" relative="1" as="geometry">
            <mxPoint x="455" y="450" as="sourcePoint" />
            <mxPoint x="600" y="470" as="targetPoint" />
          </mxGeometry>
        </mxCell>
        <mxCell id="Z197no9oIkUsPz3fdEV5-31" value="&lt;b&gt;CLK DIVIDER&lt;/b&gt;" style="rounded=1;whiteSpace=wrap;html=1;fontSize=15;" vertex="1" parent="1">
          <mxGeometry x="395" y="450" width="120" height="60" as="geometry" />
        </mxCell>
        <mxCell id="Z197no9oIkUsPz3fdEV5-32" value="" style="endArrow=classic;html=1;rounded=0;shadow=0;fontSize=15;entryX=0.5;entryY=1;entryDx=0;entryDy=0;" edge="1" parent="1" target="Z197no9oIkUsPz3fdEV5-31">
          <mxGeometry width="50" height="50" relative="1" as="geometry">
            <mxPoint x="455" y="540" as="sourcePoint" />
            <mxPoint x="600" y="470" as="targetPoint" />
          </mxGeometry>
        </mxCell>
        <mxCell id="Z197no9oIkUsPz3fdEV5-33" value="&lt;b&gt;PCLK&lt;/b&gt;" style="text;html=1;align=center;verticalAlign=middle;resizable=0;points=[];autosize=1;strokeColor=none;fillColor=none;fontSize=15;" vertex="1" parent="1">
          <mxGeometry x="420" y="535" width="60" height="30" as="geometry" />
        </mxCell>
      </root>
    </mxGraphModel>
  </diagram>
</mxfile>
